<?xml version="1.0" encoding="utf-8"?>
<!-- Generator: Adobe Illustrator 26.3.1, SVG Export Plug-In . SVG Version: 6.00 Build 0)  -->
<svg version="1.1" id="Layer_1" xmlns="http://www.w3.org/2000/svg" xmlns:xlink="http://www.w3.org/1999/xlink" x="0px" y="0px"
	 viewBox="0 0 353.2 337.6" style="enable-background:new 0 0 353.2 337.6;" xml:space="preserve">
<g>
	<g>
		<circle cx="14" cy="168.5" r="14"/>
		<circle cx="77.1" cy="168.5" r="14"/>
		<circle cx="51.3" cy="209.8" r="14"/>
		<circle cx="96.6" cy="227.8" r="14"/>
		<circle cx="99.4" cy="276.8" r="14"/>
		<circle cx="51.3" cy="127.1" r="14"/>
		<circle cx="45.5" cy="72.7" r="14"/>
		<circle cx="96.6" cy="108.7" r="14"/>
		<circle cx="98.4" cy="61.7" r="14"/>
		<circle cx="145.9" cy="72.7" r="14"/>
		<circle cx="207.1" cy="72.7" r="14"/>
		<circle cx="253.3" cy="61.1" r="14"/>
		<circle cx="256.5" cy="109.7" r="14"/>
		<circle cx="301.9" cy="127.1" r="14"/>
		<circle cx="301.9" cy="209.8" r="14"/>
		<circle cx="256.5" cy="227.9" r="14"/>
		<circle cx="308.1" cy="264.2" r="14"/>
		<circle cx="207.1" cy="264.2" r="14"/>
		<circle cx="145.9" cy="264.2" r="14"/>
		<circle cx="45.1" cy="264.2" r="14"/>
		<circle cx="253.3" cy="276.8" r="14"/>
		<circle cx="176.3" cy="301.5" r="14"/>
		<circle cx="226.7" cy="323.6" r="14"/>
		<circle cx="126.6" cy="323.6" r="14"/>
		<circle cx="276.5" cy="168.5" r="14"/>
		<circle cx="339.2" cy="168.5" r="14"/>
		<circle cx="308.1" cy="72.7" r="14"/>
		<circle cx="176.3" cy="35.5" r="14"/>
		<circle cx="126.2" cy="14" r="14"/>
		<circle cx="226.8" cy="14" r="14"/>
	</g>
</g>
</svg>
